<svg width="53" height="54" viewBox="0 0 53 54" fill="none" xmlns="http://www.w3.org/2000/svg">
<g clip-path="url(#clip0_3_462)">
<path d="M37.0128 38.4734C38.9992 41.9205 40.9635 45.3284 42.9263 48.7327C34.2347 55.3869 20.7122 56.191 10.7018 48.5281C-0.818093 39.7029 -2.71148 24.6444 3.45606 13.8047C10.5496 1.33665 23.824 -1.42073 32.3709 0.601154C32.1397 1.1033 27.0208 11.723 27.0208 11.723C27.0208 11.723 26.6161 11.7496 26.3872 11.754C23.861 11.8611 21.9794 12.4489 19.9627 13.4916C17.7501 14.6461 15.8539 16.3251 14.44 18.3816C13.026 20.4382 12.1373 22.8097 11.8515 25.2891C11.5533 27.8034 11.901 30.3523 12.8617 32.695C13.674 34.6755 14.823 36.4345 16.3635 37.9195C18.7265 40.1999 21.5385 41.6118 24.7981 42.0792C27.8848 42.5223 30.8534 42.0837 33.6351 40.6858C34.6785 40.1622 35.5662 39.584 36.6037 38.7909C36.7359 38.7052 36.8533 38.5967 37.0128 38.4734Z" fill="#FF3A22"/>
<path d="M37.032 8.24194C36.5277 7.7457 36.0602 7.28786 35.595 6.82707C35.3173 6.55236 35.05 6.26658 34.7657 5.99852C34.6638 5.90179 34.5442 5.7696 34.5442 5.7696C34.5442 5.7696 34.6409 5.56431 34.6823 5.48013C35.2265 4.38796 36.0794 3.58969 37.0911 2.95463C38.2098 2.24704 39.5132 1.88701 40.8365 1.92006C42.5298 1.95329 44.1042 2.37494 45.4327 3.51068C46.4133 4.34882 46.9162 5.41219 47.0048 6.68159C47.1525 8.8231 46.2664 10.4632 44.5066 11.6078C43.4728 12.2813 42.3577 12.8019 41.2397 13.4185C40.6231 13.7589 40.0959 14.058 39.4933 14.6739C38.9631 15.2919 38.9372 15.8746 38.9372 15.8746L46.9472 15.8642V19.4317H34.5833C34.5833 19.4317 34.5833 19.188 34.5833 19.0868C34.5361 17.3338 34.7406 15.6841 35.5433 14.092C36.2818 12.6313 37.4293 11.562 38.808 10.7386C39.8699 10.1043 40.9879 9.56451 42.052 8.93313C42.7085 8.54397 43.1723 7.97314 43.1686 7.14534C43.1686 6.43495 42.6516 5.80357 41.9132 5.60641C40.1719 5.13675 38.3996 5.88628 37.4781 7.47986C37.3437 7.71247 37.2063 7.9436 37.032 8.24194Z" fill="#FF3A22"/>
<path d="M52.5248 34.6814L45.7747 23.0242H32.4168L25.623 34.8017H39.0791L45.7193 46.4035L52.5248 34.6814Z" fill="#FF3A22"/>
</g>
<defs>
<clipPath id="clip0_3_462">
<rect width="52.5253" height="54" fill="white"/>
</clipPath>
</defs>
</svg>
