<svg width="257" height="56" viewBox="0 0 257 56" fill="none" xmlns="http://www.w3.org/2000/svg">
<path d="M34 38.5031L43.2171 36.1761L47.0681 48L34 38.5031ZM55.2121 23.2201H38.9873L34 8L29.0126 23.2201H12.7878L25.9192 32.6541L20.9318 47.8742L34.0631 38.4403L42.1439 32.6541L55.2121 23.2201Z" fill="#219653"/>
<path d="M58.8031 18.3267V13.9091H82.0133V18.3267H73.0218V43H67.7945V18.3267H58.8031ZM83.9948 43V21.1818H88.9806V24.8182H89.2079C89.6056 23.5587 90.2874 22.5881 91.2534 21.9062C92.2287 21.215 93.3414 20.8693 94.5914 20.8693C94.8755 20.8693 95.1927 20.8835 95.5431 20.9119C95.903 20.9309 96.2013 20.964 96.438 21.0114V25.7415C96.2202 25.6657 95.8746 25.5994 95.4011 25.5426C94.9371 25.4763 94.4873 25.4432 94.0516 25.4432C93.1141 25.4432 92.2713 25.6468 91.5232 26.054C90.7846 26.4517 90.2022 27.0057 89.7761 27.7159C89.3499 28.4261 89.1369 29.2453 89.1369 30.1733V43H83.9948ZM113.76 33.8239V21.1818H118.903V43H113.917V39.1222H113.689C113.197 40.3437 112.387 41.3428 111.26 42.1193C110.143 42.8958 108.765 43.2841 107.127 43.2841C105.697 43.2841 104.433 42.9669 103.334 42.3324C102.245 41.6884 101.393 40.7557 100.777 39.5341C100.162 38.303 99.8542 36.8163 99.8542 35.0739V21.1818H104.996V34.2784C104.996 35.661 105.375 36.7595 106.133 37.5739C106.89 38.3883 107.885 38.7955 109.116 38.7955C109.873 38.7955 110.607 38.6108 111.317 38.2415C112.027 37.8722 112.61 37.3229 113.064 36.5938C113.528 35.8551 113.76 34.9318 113.76 33.8239ZM141.434 26.9489L136.747 27.4602C136.614 26.9867 136.382 26.5417 136.051 26.125C135.729 25.7083 135.293 25.3722 134.744 25.1165C134.195 24.8608 133.523 24.733 132.727 24.733C131.657 24.733 130.757 24.965 130.028 25.429C129.309 25.893 128.953 26.4943 128.963 27.233C128.953 27.8674 129.185 28.3835 129.659 28.7812C130.142 29.179 130.937 29.5057 132.045 29.7614L135.767 30.5568C137.831 31.0019 139.365 31.7074 140.369 32.6733C141.382 33.6392 141.894 34.9034 141.903 36.4659C141.894 37.839 141.491 39.0511 140.696 40.1023C139.91 41.1439 138.816 41.9583 137.415 42.5455C136.013 43.1326 134.403 43.4261 132.585 43.4261C129.915 43.4261 127.765 42.8674 126.136 41.75C124.507 40.6231 123.537 39.0559 123.224 37.0483L128.238 36.5653C128.466 37.5502 128.949 38.2936 129.687 38.7955C130.426 39.2973 131.387 39.5483 132.571 39.5483C133.792 39.5483 134.773 39.2973 135.511 38.7955C136.259 38.2936 136.633 37.6733 136.633 36.9347C136.633 36.3097 136.392 35.7936 135.909 35.3864C135.435 34.9792 134.697 34.6667 133.693 34.4489L129.971 33.6676C127.879 33.232 126.33 32.4981 125.327 31.4659C124.323 30.4242 123.826 29.108 123.835 27.517C123.826 26.1723 124.19 25.0076 124.929 24.0227C125.677 23.0284 126.714 22.2614 128.04 21.7216C129.375 21.1723 130.914 20.8977 132.656 20.8977C135.213 20.8977 137.225 21.4422 138.693 22.5312C140.17 23.6203 141.084 25.0928 141.434 26.9489ZM157.038 21.1818V25.1591H144.496V21.1818H157.038ZM147.592 15.9545H152.734V36.4375C152.734 37.1288 152.838 37.6591 153.047 38.0284C153.264 38.3883 153.549 38.6345 153.899 38.767C154.249 38.8996 154.638 38.9659 155.064 38.9659C155.386 38.9659 155.679 38.9422 155.944 38.8949C156.219 38.8475 156.427 38.8049 156.569 38.767L157.436 42.7869C157.161 42.8816 156.768 42.9858 156.257 43.0994C155.755 43.2131 155.139 43.2794 154.41 43.2983C153.122 43.3362 151.962 43.142 150.93 42.7159C149.898 42.2803 149.079 41.608 148.473 40.6989C147.876 39.7898 147.583 38.6534 147.592 37.2898V15.9545ZM161.339 51.1818V21.1818H166.395V24.7898H166.694C166.959 24.2595 167.333 23.696 167.816 23.0994C168.299 22.4934 168.952 21.9773 169.776 21.5511C170.6 21.1155 171.651 20.8977 172.929 20.8977C174.615 20.8977 176.135 21.3286 177.489 22.1903C178.853 23.0426 179.932 24.3068 180.728 25.983C181.533 27.6496 181.935 29.6951 181.935 32.1193C181.935 34.5152 181.542 36.5511 180.756 38.2273C179.97 39.9034 178.9 41.1818 177.546 42.0625C176.192 42.9432 174.658 43.3835 172.944 43.3835C171.694 43.3835 170.657 43.1752 169.833 42.7585C169.009 42.3419 168.346 41.84 167.844 41.2528C167.352 40.6562 166.968 40.0928 166.694 39.5625H166.481V51.1818H161.339ZM166.381 32.0909C166.381 33.5019 166.58 34.7377 166.978 35.7983C167.385 36.8589 167.967 37.6875 168.725 38.2841C169.492 38.8712 170.42 39.1648 171.509 39.1648C172.645 39.1648 173.597 38.8617 174.364 38.2557C175.131 37.6402 175.709 36.8021 176.097 35.7415C176.495 34.6714 176.694 33.4545 176.694 32.0909C176.694 30.7367 176.5 29.5341 176.111 28.483C175.723 27.4318 175.145 26.608 174.378 26.0114C173.611 25.4148 172.655 25.1165 171.509 25.1165C170.411 25.1165 169.478 25.4053 168.711 25.983C167.944 26.5606 167.361 27.3703 166.964 28.4119C166.575 29.4536 166.381 30.6799 166.381 32.0909ZM186.339 43V21.1818H191.481V43H186.339ZM188.924 18.0852C188.109 18.0852 187.409 17.8153 186.822 17.2756C186.234 16.7263 185.941 16.0682 185.941 15.3011C185.941 14.5246 186.234 13.8665 186.822 13.3267C187.409 12.7775 188.109 12.5028 188.924 12.5028C189.748 12.5028 190.448 12.7775 191.026 13.3267C191.613 13.8665 191.907 14.5246 191.907 15.3011C191.907 16.0682 191.613 16.7263 191.026 17.2756C190.448 17.8153 189.748 18.0852 188.924 18.0852ZM201.91 13.9091V43H196.768V13.9091H201.91ZM216.715 43.4261C214.584 43.4261 212.738 42.9574 211.175 42.0199C209.613 41.0824 208.401 39.7708 207.539 38.0852C206.687 36.3996 206.26 34.4299 206.26 32.1761C206.26 29.9223 206.687 27.9479 207.539 26.2528C208.401 24.5578 209.613 23.2415 211.175 22.304C212.738 21.3665 214.584 20.8977 216.715 20.8977C218.846 20.8977 220.692 21.3665 222.255 22.304C223.817 23.2415 225.025 24.5578 225.877 26.2528C226.739 27.9479 227.17 29.9223 227.17 32.1761C227.17 34.4299 226.739 36.3996 225.877 38.0852C225.025 39.7708 223.817 41.0824 222.255 42.0199C220.692 42.9574 218.846 43.4261 216.715 43.4261ZM216.743 39.3068C217.899 39.3068 218.865 38.9896 219.641 38.3551C220.418 37.7112 220.995 36.8494 221.374 35.7699C221.762 34.6903 221.956 33.4877 221.956 32.1619C221.956 30.8267 221.762 29.6193 221.374 28.5398C220.995 27.4508 220.418 26.5843 219.641 25.9403C218.865 25.2964 217.899 24.9744 216.743 24.9744C215.56 24.9744 214.575 25.2964 213.789 25.9403C213.012 26.5843 212.43 27.4508 212.042 28.5398C211.663 29.6193 211.474 30.8267 211.474 32.1619C211.474 33.4877 211.663 34.6903 212.042 35.7699C212.43 36.8494 213.012 37.7112 213.789 38.3551C214.575 38.9896 215.56 39.3068 216.743 39.3068ZM242.429 21.1818V25.1591H229.886V21.1818H242.429ZM232.983 15.9545H238.125V36.4375C238.125 37.1288 238.229 37.6591 238.437 38.0284C238.655 38.3883 238.939 38.6345 239.29 38.767C239.64 38.8996 240.028 38.9659 240.454 38.9659C240.776 38.9659 241.07 38.9422 241.335 38.8949C241.61 38.8475 241.818 38.8049 241.96 38.767L242.827 42.7869C242.552 42.8816 242.159 42.9858 241.648 43.0994C241.146 43.2131 240.53 43.2794 239.801 43.2983C238.513 43.3362 237.353 43.142 236.321 42.7159C235.289 42.2803 234.469 41.608 233.863 40.6989C233.267 39.7898 232.973 38.6534 232.983 37.2898V15.9545Z" fill="black"/>
</svg>
