<svg width="28" height="28" viewBox="0 0 28 28" fill="none" xmlns="http://www.w3.org/2000/svg">
<path d="M7.44603 6.96262C9.24232 5.52572 11.5208 4.6665 14 4.6665C16.4792 4.6665 18.7577 5.52572 20.554 6.96262L22.2496 5.26701L23.8995 6.91692L22.2039 8.61253C23.6407 10.4088 24.5 12.6873 24.5 15.1665C24.5 20.9655 19.799 25.6665 14 25.6665C8.20101 25.6665 3.5 20.9655 3.5 15.1665C3.5 12.6873 4.35922 10.4088 5.79612 8.61253L4.10051 6.91692L5.75042 5.26701L7.44603 6.96262ZM14 23.3332C18.5103 23.3332 22.1667 19.6768 22.1667 15.1665C22.1667 10.6562 18.5103 6.99984 14 6.99984C9.48968 6.99984 5.83333 10.6562 5.83333 15.1665C5.83333 19.6768 9.48968 23.3332 14 23.3332ZM15.1667 13.9998H18.6667L12.8333 21.5832V16.3332H9.33333L15.1667 8.74424V13.9998ZM9.33333 1.1665H18.6667V3.49984H9.33333V1.1665Z" fill="black"/>
</svg>
