<svg width="28" height="28" viewBox="0 0 28 28" fill="none" xmlns="http://www.w3.org/2000/svg">
<path d="M13.9993 2.3335C18.5097 2.3335 22.166 5.98984 22.166 10.5002C22.166 10.6326 22.1629 10.7643 22.1567 10.8952C24.8803 11.8535 26.8327 14.4489 26.8327 17.5002C26.8327 21.3661 23.6987 24.5002 19.8327 24.5002H8.16602C4.30002 24.5002 1.16602 21.3661 1.16602 17.5002C1.16602 14.4489 3.11839 11.8535 5.84206 10.8952C5.83583 10.7643 5.83268 10.6326 5.83268 10.5002C5.83268 5.98984 9.48903 2.3335 13.9993 2.3335ZM13.9993 4.66683C10.7777 4.66683 8.16602 7.27851 8.16602 10.5002C8.16602 10.5952 8.16827 10.6899 8.17276 10.7842L8.25541 12.5195L6.61648 13.0962C4.76448 13.7478 3.49935 15.5039 3.49935 17.5002C3.49935 20.0774 5.58869 22.1668 8.16602 22.1668H19.8327C22.41 22.1668 24.4993 20.0774 24.4993 17.5002C24.4993 14.9218 22.411 12.8335 19.8327 12.8335C17.7712 12.8335 16.022 14.1701 15.4042 16.024L13.1901 15.2859C14.1166 12.5051 16.741 10.5002 19.8327 10.5002C19.8327 7.27851 17.221 4.66683 13.9993 4.66683Z" fill="black"/>
</svg>
