<svg width="28" height="28" viewBox="0 0 28 28" fill="none" xmlns="http://www.w3.org/2000/svg">
<path d="M11.6667 9.33333H16.3333V7.58333C16.3333 5.32817 18.1615 3.5 20.4167 3.5C22.6718 3.5 24.5 5.32817 24.5 7.58333C24.5 9.8385 22.6718 11.6667 20.4167 11.6667H18.6667V16.3333H20.4167C22.6718 16.3333 24.5 18.1615 24.5 20.4167C24.5 22.6718 22.6718 24.5 20.4167 24.5C18.1615 24.5 16.3333 22.6718 16.3333 20.4167V18.6667H11.6667V20.4167C11.6667 22.6718 9.8385 24.5 7.58333 24.5C5.32817 24.5 3.5 22.6718 3.5 20.4167C3.5 18.1615 5.32817 16.3333 7.58333 16.3333H9.33333V11.6667H7.58333C5.32817 11.6667 3.5 9.8385 3.5 7.58333C3.5 5.32817 5.32817 3.5 7.58333 3.5C9.8385 3.5 11.6667 5.32817 11.6667 7.58333V9.33333ZM9.33333 9.33333V7.58333C9.33333 6.61683 8.54983 5.83333 7.58333 5.83333C6.61683 5.83333 5.83333 6.61683 5.83333 7.58333C5.83333 8.54983 6.61683 9.33333 7.58333 9.33333H9.33333ZM9.33333 18.6667H7.58333C6.61683 18.6667 5.83333 19.4502 5.83333 20.4167C5.83333 21.3831 6.61683 22.1667 7.58333 22.1667C8.54983 22.1667 9.33333 21.3831 9.33333 20.4167V18.6667ZM18.6667 9.33333H20.4167C21.3831 9.33333 22.1667 8.54983 22.1667 7.58333C22.1667 6.61683 21.3831 5.83333 20.4167 5.83333C19.4502 5.83333 18.6667 6.61683 18.6667 7.58333V9.33333ZM18.6667 18.6667V20.4167C18.6667 21.3831 19.4502 22.1667 20.4167 22.1667C21.3831 22.1667 22.1667 21.3831 22.1667 20.4167C22.1667 19.4502 21.3831 18.6667 20.4167 18.6667H18.6667ZM11.6667 11.6667V16.3333H16.3333V11.6667H11.6667Z" fill="black"/>
</svg>
