<svg width="28" height="28" viewBox="0 0 28 28" fill="none" xmlns="http://www.w3.org/2000/svg">
<path d="M13.9999 12.8335C17.2216 12.8335 19.8333 15.4452 19.8333 18.6668V25.6668H17.4999V18.6668C17.4999 16.8028 16.0429 15.2792 14.2056 15.1728L13.9999 15.1668C12.1359 15.1668 10.6123 16.6239 10.5059 18.4611L10.4999 18.6668V25.6668H8.16659V18.6668C8.16659 15.4452 10.7783 12.8335 13.9999 12.8335ZM6.41659 16.3335C6.74191 16.3335 7.05836 16.3715 7.3617 16.4434C7.16561 17.0265 7.0451 17.6425 7.01037 18.281L6.99992 18.6668L7.00074 18.7667C6.86875 18.72 6.7295 18.6886 6.58512 18.6749L6.41659 18.6668C5.50694 18.6668 4.75939 19.3609 4.6746 20.2482L4.66659 20.4168V25.6668H2.33325V20.4168C2.33325 18.1617 4.16142 16.3335 6.41659 16.3335ZM21.5833 16.3335C23.8384 16.3335 25.6666 18.1617 25.6666 20.4168V25.6668H23.3333V20.4168C23.3333 19.5072 22.6392 18.7597 21.7518 18.6749L21.5833 18.6668C21.3789 18.6668 21.1826 18.7018 21.0003 18.7662L20.9999 18.6668C20.9999 17.8902 20.8735 17.1432 20.64 16.445C20.9415 16.3715 21.2579 16.3335 21.5833 16.3335ZM6.41659 9.3335C8.02741 9.3335 9.33325 10.6393 9.33325 12.2502C9.33325 13.861 8.02741 15.1668 6.41659 15.1668C4.80576 15.1668 3.49992 13.861 3.49992 12.2502C3.49992 10.6393 4.80576 9.3335 6.41659 9.3335ZM21.5833 9.3335C23.1941 9.3335 24.4999 10.6393 24.4999 12.2502C24.4999 13.861 23.1941 15.1668 21.5833 15.1668C19.9724 15.1668 18.6666 13.861 18.6666 12.2502C18.6666 10.6393 19.9724 9.3335 21.5833 9.3335ZM6.41659 11.6668C6.09442 11.6668 5.83325 11.928 5.83325 12.2502C5.83325 12.5723 6.09442 12.8335 6.41659 12.8335C6.73875 12.8335 6.99992 12.5723 6.99992 12.2502C6.99992 11.928 6.73875 11.6668 6.41659 11.6668ZM21.5833 11.6668C21.2611 11.6668 20.9999 11.928 20.9999 12.2502C20.9999 12.5723 21.2611 12.8335 21.5833 12.8335C21.9054 12.8335 22.1666 12.5723 22.1666 12.2502C22.1666 11.928 21.9054 11.6668 21.5833 11.6668ZM13.9999 2.3335C16.5772 2.3335 18.6666 4.42283 18.6666 7.00016C18.6666 9.57749 16.5772 11.6668 13.9999 11.6668C11.4226 11.6668 9.33325 9.57749 9.33325 7.00016C9.33325 4.42283 11.4226 2.3335 13.9999 2.3335ZM13.9999 4.66683C12.7112 4.66683 11.6666 5.7115 11.6666 7.00016C11.6666 8.28883 12.7112 9.3335 13.9999 9.3335C15.2886 9.3335 16.3333 8.28883 16.3333 7.00016C16.3333 5.7115 15.2886 4.66683 13.9999 4.66683Z" fill="black"/>
</svg>
