<svg width="28" height="28" viewBox="0 0 28 28" fill="none" xmlns="http://www.w3.org/2000/svg">
<path d="M19.3622 1.20951L26.7665 8.61387C26.9944 8.84169 26.9944 9.21103 26.7665 9.43883C26.6791 9.52622 26.5663 9.58359 26.4442 9.60269L24.7244 9.87156L18.1248 3.27189L18.3722 1.53949C18.4179 1.22055 18.7133 0.99895 19.0322 1.04451C19.1572 1.06236 19.2729 1.12025 19.3622 1.20951ZM5.3606 23.5061C9.70338 19.6193 14.6881 18.4569 20.1108 17.0655L20.6316 12.3784L15.618 7.36472L10.9308 7.88551C9.53945 13.3082 8.37703 18.2929 4.49026 22.6357L2.86304 21.0085C6.16287 17.1587 7.40031 12.8964 9.05022 5.74677L16.4749 4.92182L23.0746 11.5215L22.2495 18.946C15.1 20.5961 10.8376 21.8334 6.98783 25.1332L5.3606 23.5061ZM11.5251 16.4712C10.6139 15.56 10.6139 14.0826 11.5251 13.1714C12.4364 12.2601 13.9137 12.2601 14.8249 13.1714C15.7362 14.0826 15.7362 15.56 14.8249 16.4712C13.9137 17.3825 12.4364 17.3825 11.5251 16.4712Z" fill="black"/>
</svg>
