<svg width="28" height="28" viewBox="0 0 28 28" fill="none" xmlns="http://www.w3.org/2000/svg">
<path d="M23.4297 17.7331L24.8322 18.5746C25.1083 18.7404 25.1979 19.0987 25.0322 19.375C24.9829 19.457 24.9142 19.5257 24.8322 19.575L14.5993 25.7146C14.2298 25.9363 13.7683 25.9363 13.3988 25.7146L3.16612 19.575C2.88986 19.4093 2.80027 19.051 2.96603 18.7747C3.01529 18.6926 3.08401 18.6239 3.16612 18.5746L4.56855 17.7331L13.9991 23.3914L23.4297 17.7331ZM23.4297 12.2498L24.8322 13.0913C25.1083 13.2571 25.1979 13.6154 25.0322 13.8916C24.9829 13.9736 24.9142 14.0424 24.8322 14.0917L13.9991 20.5914L3.16612 14.0917C2.88986 13.9259 2.80027 13.5676 2.96603 13.2914C3.01529 13.2092 3.08401 13.1405 3.16612 13.0913L4.56855 12.2498L13.9991 17.9081L23.4297 12.2498ZM14.5993 1.52661L24.8322 7.66626C25.1083 7.83201 25.1979 8.19033 25.0322 8.46659C24.9829 8.5487 24.9142 8.61741 24.8322 8.66667L13.9991 15.1664L3.16612 8.66667C2.88986 8.50092 2.80027 8.1426 2.96603 7.86635C3.01529 7.78424 3.08401 7.71552 3.16612 7.66626L13.3988 1.52661C13.7683 1.30493 14.2298 1.30493 14.5993 1.52661ZM13.9991 3.88758L6.86762 8.16647L13.9991 12.4453L21.1306 8.16647L13.9991 3.88758Z" fill="black"/>
</svg>
