<svg width="30" height="28" viewBox="0 0 30 28" fill="none" xmlns="http://www.w3.org/2000/svg">
<g clip-path="url(#clip0_3_4)">
<path fill-rule="evenodd" clip-rule="evenodd" d="M10.1661 0C13.5306 0.0968671 16.8053 -0.0556773 19.8221 0.0678922C19.8012 1.7581 19.7881 3.11509 19.7881 5.00726C19.7881 5.57881 19.9205 6.33954 19.7881 6.88069C19.6903 7.28066 18.8334 8.06099 18.5641 8.37943C17.3207 9.85034 16.173 11.4735 14.9259 12.8078C13.5689 11.0872 12.1285 9.38589 10.6759 7.63035C10.4911 7.40678 10.1483 7.06221 10.0978 6.88069C9.97333 6.43215 10.0978 5.81544 10.0978 5.27968C10.0978 3.59062 10.0978 1.8132 10.0978 0.102264C10.0967 0.0437465 10.1233 0.0139193 10.1661 0Z" fill="black"/>
<path fill-rule="evenodd" clip-rule="evenodd" d="M13.8379 13.6253C12.0746 14.3091 10.3096 14.9457 8.46598 15.6689C7.96496 15.8655 7.19599 16.3274 6.6981 16.3501C6.25152 16.3706 5.51204 15.9518 5.03229 15.805C3.32849 15.2851 1.62554 14.7644 0 14.2043C1.03351 11.209 2.00861 7.97351 3.05998 5.10925C4.71246 5.59444 6.31872 6.13786 7.98991 6.67646C8.43705 6.82048 9.25252 6.94575 9.62197 7.18721C9.93812 7.39373 10.4905 8.44762 10.7099 8.7885C11.7692 10.4315 12.822 12.0041 13.8379 13.6253Z" fill="black"/>
<path fill-rule="evenodd" clip-rule="evenodd" d="M26.7582 5.10925C27.8645 8.04311 28.7577 11.1906 29.7501 14.2383C28.1713 14.7721 26.5415 15.2968 24.8882 15.8393C24.4119 15.9959 23.7075 16.3436 23.2562 16.3504C22.752 16.3578 21.9694 15.876 21.4542 15.6692C19.6302 14.9369 17.8312 14.3588 16.0823 13.6256C17.1042 11.9567 18.1056 10.4761 19.2103 8.78878C19.4859 8.36779 19.9149 7.47866 20.2982 7.22158C20.6623 6.97785 21.3947 6.8807 21.8963 6.71054C23.4776 6.17451 25.1822 5.6237 26.7582 5.10925Z" fill="black"/>
<path fill-rule="evenodd" clip-rule="evenodd" d="M14.1779 14.9198C14.3721 15.1655 14.3004 15.5061 14.3137 15.8052C14.3815 17.2878 14.4756 18.8931 14.5516 20.5063C14.5788 21.0801 14.7555 21.8556 14.6537 22.3797C14.5822 22.7484 13.8683 23.4964 13.6338 23.8103C12.5816 25.2184 11.5469 26.6325 10.5738 28.0003C7.94312 26.1166 5.26111 24.2849 2.71973 22.3118C3.91485 20.6807 5.1199 19.2243 6.35784 17.5429C6.53392 17.3037 6.68902 16.9679 6.86794 16.8617C7.28701 16.6126 8.15096 16.52 8.66984 16.3847C10.4485 15.9217 12.4503 15.3774 14.1779 14.9198Z" fill="black"/>
<path fill-rule="evenodd" clip-rule="evenodd" d="M15.6742 14.9198C17.3392 15.3931 19.3895 15.843 21.1823 16.3504C21.7465 16.51 22.4973 16.6202 22.9502 16.8614C23.3511 17.0747 23.678 17.7653 24.0041 18.2241C25.0158 19.6464 26.0575 20.9375 27.03 22.3456C24.5244 24.2977 21.8886 26.1195 19.312 28.0003C18.1855 26.6958 17.3256 25.2644 16.218 23.8103C15.8991 23.3913 15.2784 22.826 15.1981 22.4138C15.1111 21.967 15.2546 21.1139 15.2999 20.5742C15.4508 18.7845 15.5296 16.7873 15.6062 15.0218C15.6354 14.9942 15.6263 14.9286 15.6742 14.9198Z" fill="black"/>
</g>
<defs>
<clipPath id="clip0_3_4">
<rect width="29.75" height="28" fill="white"/>
</clipPath>
</defs>
</svg>
