<svg width="430" height="460" viewBox="0 0 430 460" fill="none" xmlns="http://www.w3.org/2000/svg">
<path fill-rule="evenodd" clip-rule="evenodd" d="M426.672 280.651C420.12 248.458 420.308 213.091 427.323 180.995C429.085 172.932 430 164.664 430 156.24C430 69.9511 333.965 0 215.499 0C97.0331 0 0.99768 69.9511 0.99768 156.24C0.99768 164.092 1.79281 171.808 3.32763 179.349C9.88022 211.542 9.69165 246.909 2.67726 279.005C0.915247 287.068 0 295.336 0 303.76C0 390.049 96.0354 460 214.501 460C332.967 460 429.002 390.049 429.002 303.76C429.002 295.908 428.207 288.192 426.672 280.651Z" fill="#BDB8FF"/>
</svg>
