<svg width="40" height="40" viewBox="0 0 40 40" fill="none" xmlns="http://www.w3.org/2000/svg">
<path d="M37.5 25C37.4981 28.1151 36.3332 31.1172 34.2335 33.4182C32.1338 35.7192 29.2506 37.1533 26.1487 37.4396C23.0468 37.7258 19.9499 36.8436 17.4645 34.9657C14.9791 33.0878 13.2845 30.3496 12.7125 27.2875C14.7076 27.6586 16.763 27.5384 18.7013 26.9372C20.6395 26.3361 22.4022 25.2721 23.8371 23.8371C25.2721 22.4022 26.3361 20.6395 26.9372 18.7013C27.5384 16.763 27.6586 14.7076 27.2875 12.7125C30.1564 13.2465 32.748 14.7674 34.6132 17.0116C36.4784 19.2558 37.4997 22.0819 37.5 25ZM25 12.5C25.7674 12.5007 26.5331 12.5719 27.2875 12.7125C26.8712 10.4741 25.8514 8.39189 24.3382 6.69068C22.825 4.98946 20.8759 3.73384 18.7013 3.05936C16.5266 2.38488 14.2091 2.31716 11.9988 2.8635C9.78851 3.40985 7.76941 4.5495 6.15946 6.15946C4.5495 7.76941 3.40985 9.78851 2.8635 11.9988C2.31716 14.2091 2.38488 16.5266 3.05936 18.7013C3.73384 20.8759 4.98946 22.825 6.69068 24.3382C8.39189 25.8514 10.4741 26.8712 12.7125 27.2875C12.3767 25.4833 12.4422 23.6273 12.9045 21.8513C13.3668 20.0753 14.2145 18.4228 15.3874 17.0113C16.5602 15.5998 18.0295 14.4639 19.6908 13.6842C21.3522 12.9045 23.1648 12.5002 25 12.5Z" fill="black"/>
</svg>
