<svg width="40" height="40" viewBox="0 0 40 40" fill="none" xmlns="http://www.w3.org/2000/svg">
<path d="M33.414 19.603L15.914 38.353C15.7285 38.5509 15.4837 38.6832 15.2165 38.7297C14.9493 38.7763 14.6742 38.7347 14.4328 38.6113C14.1913 38.4878 13.9965 38.2891 13.8778 38.0452C13.7592 37.8013 13.723 37.5255 13.7749 37.2593L16.0655 25.8015L7.06084 22.4202C6.86745 22.3479 6.695 22.2287 6.55888 22.0735C6.42276 21.9182 6.32722 21.7317 6.28079 21.5305C6.23436 21.3293 6.23849 21.1198 6.29282 20.9206C6.34714 20.7214 6.44996 20.5387 6.59209 20.389L24.0921 1.63895C24.2775 1.44104 24.5223 1.30881 24.7895 1.26223C25.0567 1.21565 25.3318 1.25723 25.5733 1.38071C25.8148 1.50418 26.0096 1.70285 26.1282 1.94674C26.2469 2.19062 26.283 2.46649 26.2312 2.7327L23.9343 14.203L32.939 17.5796C33.1309 17.6524 33.302 17.7714 33.4371 17.926C33.5721 18.0807 33.667 18.2662 33.7133 18.4662C33.7597 18.6662 33.756 18.8746 33.7027 19.0728C33.6494 19.2711 33.5481 19.4532 33.4077 19.603H33.414Z" fill="black"/>
</svg>
