<svg width="40" height="40" viewBox="0 0 40 40" fill="none" xmlns="http://www.w3.org/2000/svg">
<path d="M34.95 10.3358L21.2 2.81241C20.8326 2.60941 20.4197 2.50293 20 2.50293C19.5803 2.50293 19.1674 2.60941 18.8 2.81241L5.05 10.339C4.65733 10.5538 4.32954 10.8702 4.10086 11.2549C3.87219 11.6397 3.75102 12.0789 3.75 12.5265V27.4702C3.75102 27.9178 3.87219 28.357 4.10086 28.7417C4.32954 29.1265 4.65733 29.4429 5.05 29.6577L18.8 37.1843C19.1674 37.3873 19.5803 37.4938 20 37.4938C20.4197 37.4938 20.8326 37.3873 21.2 37.1843L34.95 29.6577C35.3427 29.4429 35.6705 29.1265 35.8991 28.7417C36.1278 28.357 36.249 27.9178 36.25 27.4702V12.528C36.2498 12.0796 36.129 11.6395 35.9003 11.2538C35.6716 10.8681 35.3434 10.5511 34.95 10.3358ZM20 26.2499C18.7639 26.2499 17.5555 25.8834 16.5277 25.1966C15.4999 24.5098 14.6988 23.5337 14.2258 22.3917C13.7527 21.2496 13.6289 19.993 13.8701 18.7806C14.1112 17.5682 14.7065 16.4546 15.5806 15.5805C16.4547 14.7064 17.5683 14.1112 18.7807 13.87C19.9931 13.6288 21.2497 13.7526 22.3918 14.2257C23.5338 14.6987 24.5099 15.4998 25.1967 16.5276C25.8834 17.5554 26.25 18.7638 26.25 19.9999C26.25 21.6575 25.5915 23.2472 24.4194 24.4193C23.2473 25.5914 21.6576 26.2499 20 26.2499Z" fill="black"/>
</svg>
